<?xml version="1.0" encoding="iso-8859-1"?>
<!-- Uploaded to: SVG Repo, www.svgrepo.com, Generator: SVG Repo Mixer Tools -->
<svg height="800px" width="800px" version="1.1" id="Capa_1" xmlns="http://www.w3.org/2000/svg" xmlns:xlink="http://www.w3.org/1999/xlink" 
	 viewBox="0 0 512.001 512.001" xml:space="preserve">
<path style="fill:#DC73AE;" d="M364.606,163.454H147.394c-12.853,0-23.273,10.42-23.273,23.273v279.274
	c0,12.853,10.42,23.273,23.273,23.273h217.212c12.851,0,23.273-10.42,23.273-23.273V186.726
	C387.879,173.872,377.457,163.454,364.606,163.454z"/>
<path style="fill:#DA50A1;" d="M364.606,489.273c12.851,0,23.273-10.42,23.273-23.273V186.726c0-12.853-10.422-23.273-23.273-23.273
	H255.997v325.82H364.606z"/>
<path style="fill:#9E8CEC;" d="M511.952,261.212c-4.288-64.802-32.83-124.961-80.372-169.393
	C383.907,47.265,321.553,22.727,256,22.727c-65.556,0-127.913,24.537-175.585,69.092C32.874,136.253,4.333,196.414,0.05,261.216
	c-0.031,0.51-0.05,1.022-0.05,1.536v63.612c0,12.853,10.42,23.273,23.273,23.273c12.851,0,23.273-10.42,23.273-23.273V263.54
	c7.593-109,99.45-194.268,209.454-194.268c109.999,0,201.857,85.267,209.455,194.265v62.826c0,12.853,10.42,23.273,23.273,23.273
	c12.851,0,23.273-10.42,23.273-23.273v-63.614C512,262.237,511.983,261.724,511.952,261.212z"/>
<path style="fill:#AB99EC;" d="M279.279,303.085c6.113,0,12.119-2.482,16.446-6.811c4.346-4.329,6.827-10.333,6.827-16.448
	c0-6.127-2.482-12.131-6.827-16.477c-4.327-4.329-10.332-6.811-16.446-6.811c-6.127,0-12.131,2.482-16.46,6.811
	c-4.33,4.346-6.813,10.333-6.813,16.477c0,6.128,2.482,12.119,6.813,16.448C267.148,300.603,273.152,303.085,279.279,303.085z"/>
<path style="fill:#D4CBF6;" d="M279.279,349.631c-6.127,0-12.131,2.482-16.46,6.827c-4.33,4.312-6.813,10.318-6.813,16.46
	c0,6.128,2.482,12.119,6.813,16.448c4.329,4.329,10.333,6.811,16.46,6.811c6.113,0,12.119-2.482,16.446-6.811
	c4.346-4.329,6.827-10.333,6.827-16.448c0-6.127-2.482-12.131-6.827-16.46C291.396,352.112,285.392,349.631,279.279,349.631z"/>
<path style="fill:#5B699C;" d="M131.879,334.122c-12.853,0-23.273-10.42-23.273-23.273v-77.577c0-12.853,10.42-23.273,23.273-23.273
	c12.851,0,23.273,10.42,23.273,23.273v77.577C155.152,323.702,144.73,334.122,131.879,334.122z"/>
<path style="fill:#6A56CF;" d="M511.952,261.212c-4.288-64.802-32.83-124.961-80.372-169.393
	C383.907,47.265,321.553,22.727,256,22.727h-0.003v46.545H256c109.999,0,201.857,85.267,209.455,194.265v62.826
	c0,12.853,10.42,23.273,23.273,23.273c12.851,0,23.273-10.42,23.273-23.273v-63.614C512,262.237,511.983,261.724,511.952,261.212z"
	/>
<path style="fill:#5B699C;" d="M45.543,319.609c-2.897-9.557-11.767-16.517-22.27-16.517C10.42,303.092,0,313.512,0,326.364V466
	c0,12.853,10.42,23.273,23.273,23.273c10.504,0,19.372-6.96,22.27-16.517c9.557-2.897,16.517-11.768,16.517-22.27V341.879
	C62.061,331.376,55.101,322.504,45.543,319.609z"/>
<path style="fill:#2D4175;" d="M488.727,303.092c-10.504,0-19.372,6.96-22.269,16.517c-9.557,2.895-16.519,11.767-16.519,22.27
	v108.606c0,10.504,6.96,19.374,16.519,22.27c2.897,9.557,11.767,16.517,22.269,16.517c12.851,0,23.273-10.42,23.273-23.273V326.364
	C512,313.51,501.578,303.092,488.727,303.092z"/>
</svg>